<?xml version="1.0" encoding="utf-8"?>
<!-- Generator: Adobe Illustrator 25.2.1, SVG Export Plug-In . SVG Version: 6.00 Build 0)  -->
<svg version="1.1" id="Camada_1" xmlns="http://www.w3.org/2000/svg" xmlns:xlink="http://www.w3.org/1999/xlink" x="0px" y="0px"
	 viewBox="0 0 1920 1080" style="enable-background:new 0 0 1920 1080;" xml:space="preserve">
<style type="text/css">
	.st0{fill:#FF4202;}
	.st1{fill:#FF4200;}
	.st2{fill:#FFFFFF;}
</style>
<g>
	<path class="st0" d="M727.54,817.27c-0.43-1.31-0.5-2.35-1.03-3.03c-7.23-9.36-6.94-19.88-4.94-30.71
		c1.91-10.33,7.07-18.78,14.9-25.62c5.14-4.49,11.01-7.8,17.53-9.9c3.17-1.02,6.31-2.15,9.47-3.23c0.41-0.14,0.81-0.34,1.23-0.39
		c9.77-1.03,19.54-2.31,29.4-1.25c3.36,0.36,6.86,0.31,10.05,1.26c6.86,2.05,13.69,4.37,19.36,9.07c0.74,0.61,1.61,1.05,2.85,1.84
		c0.65-2.94,1.04-5.38,1.78-7.7c0.28-0.87,1.28-1.66,2.14-2.14c0.6-0.34,1.53-0.09,2.32-0.09c26.84,0,53.67,0.08,80.51-0.05
		c7.8-0.04,15.66-1.45,23.39-0.9c13.81,0.99,27.61,0.87,41.42,0.96c2.58,0.02,3.26,1.96,2.21,5.42c-0.45,1.48-0.5,3.08-0.73,4.63
		c0.35,0.17,0.7,0.33,1.06,0.5c0.54-0.68,1.28-1.28,1.59-2.05c0.63-1.6,0.99-3.29,1.53-4.93c0.8-2.45,1.99-3.73,5.12-3.69
		c17.77,0.23,35.55,0.12,53.32,0.12c3.97,0,3.9-0.01,3.07,3.78c-0.25,1.14-0.04,2.39-0.04,3.75c3.05-0.45,2.87-3.17,3.46-4.9
		c0.7-2.05,1.54-2.7,3.66-2.69c19.26,0.07,38.51,0.04,57.77,0.04c0.76,0,1.53,0,2.87,0c-12.74,29.71-25.74,58.87-38.42,88.17
		c0.37,0.18,0.75,0.35,1.12,0.53c1.47-2.64,3-5.25,4.4-7.92c3.97-7.56,7.95-15.13,11.82-22.74c4.06-7.99,7.94-16.08,12.03-24.06
		c3.64-7.11,7.48-14.13,11.2-21.21c1.92-3.64,3.89-7.26,5.58-11.01c0.62-1.39,1.37-1.8,2.71-1.8c21.78,0.03,43.56,0.06,65.35,0.03
		c1.9,0,2.47,0.64,2.64,2.55c0.58,6.71,1.44,13.39,2.11,20.1c0.22,2.16,0.05,4.36,0.25,6.52c0.78,8.45,1.69,16.89,2.46,25.34
		c0.58,6.38,0.9,12.79,1.57,19.16c0.61,5.84,1.69,11.62,2.26,17.46c0.42,4.24,0.17,8.54,0.55,12.78c0.55,6.11,1.52,12.19,2.08,18.3
		c0.28,3.01,0.05,6.07,0.05,9.54c-0.93,0-1.85,0-2.76,0c-18.99,0-37.99-0.05-56.98,0.06c-2.41,0.01-2.9-0.87-2.94-3.01
		c-0.08-4.42-0.44-8.83-0.62-13.25c-0.06-1.44-0.66-2.01-2.09-1.96c-2.09,0.06-4.2,0.17-6.27-0.03c-2.07-0.2-3.03,0.91-3.73,2.51
		c-1.91,4.36-3.73,8.76-5.69,13.1c-0.83,1.84-2.2,2.67-4.48,2.66c-41.04-0.09-82.08-0.09-123.11-0.02c-2.61,0-4.47-0.19-4.13-3.44
		c0.03-0.3-0.24-0.63-0.53-1.32c-0.67,0.76-1.52,1.28-1.65,1.95c-0.55,2.81-2.48,2.8-4.72,2.79c-19.52-0.05-39.03-0.06-58.55,0.01
		c-2.3,0.01-3.37-0.61-3.39-3.04c-0.05-8.62-0.26-17.24-0.32-25.86c-0.11-15.94-0.16-31.88-0.23-47.83
		c-0.02-4.07-0.15-4.21-4.27-4.2c-2.61,0.01-5.24-0.12-7.84,0.08c-0.78,0.06-1.84,0.86-2.15,1.58c-0.64,1.47-0.93,3.11-1.22,4.71
		c-1,5.43-1.77,10.9-2.93,16.29c-1.37,6.38-3.09,12.68-4.58,19.03c-0.72,3.09-1.24,6.23-1.89,9.34c-0.95,4.54-1.93,9.07-2.91,13.61
		c-0.2,0.93-0.5,1.83-0.69,2.76c-0.89,4.43-1.76,8.87-2.68,13.47c-1.27,0-2.12,0-2.97,0c-18.38,0-36.77,0-55.15,0
		c-2.97,0-3.62-1.13-2.81-4.06c1.2-4.38,2.21-8.82,3.21-13.25c1.39-6.1,2.74-12.22,4.03-18.34c0.59-2.8,0.91-5.65,1.51-8.44
		c1.15-5.28,2.43-10.53,3.62-15.8c0.49-2.19,0.84-4.42,1.3-6.62c0.86-4.11,1.77-8.21,2.64-12.32c0.27-1.27-0.12-2.03-1.55-2.03
		c-1.92,0-3.83-0.06-5.75-0.05c-2.57,0.01-2.36,2.31-2.75,3.77c-1.06,3.97-0.93,4-5.12,4c-2.12,0-4.24,0-6.75,0
		c1.99,3.78,3.97,6.81,5.25,10.11c2.32,5.98,3.03,12.22,1.74,18.59c-0.19,0.93-0.42,1.86-0.51,2.8c-0.62,6.46-3.34,12.12-6.55,17.61
		c-3.09,5.27-7.33,9.59-12.15,13.09c-4.09,2.96-8.8,5.22-13.48,7.2c-14.35,6.06-29.53,6.1-44.7,5.2c-8.47-0.5-16.58-2.93-24.17-6.82
		c-1.5-0.77-2.88-1.76-4.32-2.65c-0.26,0.22-0.53,0.44-0.79,0.66c0.22,1.59,0.15,3.29,0.72,4.75c0.81,2.07-0.16,2.47-1.8,2.63
		c-0.43,0.04-0.87,0-1.31,0c-18.91,0-37.81-0.05-56.72,0.06c-2.69,0.02-3.36-0.91-3.49-3.43c-0.25-4.83-0.9-9.64-1.42-14.81
		c-2.85,0-5.87-0.07-8.88,0.06c-0.55,0.02-1.27,0.75-1.55,1.33c-2.28,4.79-4.46,9.63-6.72,14.43c-0.57,1.21-1.04,2.41-2.92,2.4
		c-21-0.07-42-0.05-62.99-0.06c-0.34,0-0.67-0.09-1.55-0.22c0.69-1.45,1.27-2.71,1.89-3.95c2.4-4.74,4.8-9.48,7.23-14.21
		c2.77-5.41,5.61-10.78,8.33-16.22c0.49-0.99,0.53-2.2,0.77-3.31c-1.03-0.13-2.05-0.34-3.08-0.36c-5.74-0.12-11.47-0.19-17.21-0.29
		c-2.13-0.03-4.28-0.22-6.39-0.02c-0.74,0.07-1.76,0.98-2,1.72c-0.68,2.13-1.02,4.37-1.51,6.57c-1.16,5.27-2.4,10.52-3.48,15.81
		c-0.76,3.73-1.43,7.49-1.9,11.26c-0.27,2.23-1.2,3.25-3.44,3.25c-18.99-0.02-37.99-0.02-56.98,0c-2.04,0-2.31-0.62-1.57-2.51
		c0.83-2.14,1.24-4.46,1.7-6.73c0.73-3.65,1.24-7.34,2.02-10.97c1.53-7.15,3.19-14.28,4.8-21.42c0.43-1.92,0.9-3.84,1.29-5.77
		c0.95-4.73,1.78-9.47,2.8-14.18c1.16-5.36,2.51-10.68,3.71-16.03c0.53-2.36,0.84-4.77,1.34-7.14c0.8-3.88,1.68-7.75,2.51-11.63
		c0.88-4.12,1.75-8.24,2.63-12.36c0.88-4.12,1.78-8.23,2.64-12.35c0.57-2.77,1.18-5.55,1.58-8.35c0.25-1.71,0.97-2.39,2.71-2.38
		c33.63,0.05,67.26,0.06,100.89,0.08c0.85,0,1.71,0.12,2.53,0.17c-1.11,6.41-2.01,12.68-3.3,18.86c-1.3,6.2-3.02,12.31-4.48,18.48
		c-0.12,0.49,0.31,1.1,0.48,1.66c0.53-0.32,1.3-0.5,1.54-0.97c6.2-12.05,12.32-24.14,18.57-36.16c0.49-0.94,1.89-1.98,2.87-1.99
		c22.04-0.11,44.09-0.07,66.13-0.06c0.34,0,0.67,0.08,1.37,0.17c0.37,3.21,0.79,6.44,1.1,9.67c0.87,8.96,1.72,17.92,2.51,26.88
		c0.61,6.99,1.08,13.99,1.68,20.98c0.34,3.96,0.69,7.93,1.31,11.84c0.14,0.88,1.38,2.11,2.25,2.24
		C722.39,817.49,724.67,817.27,727.54,817.27z M1033.48,757.37c-0.69-0.29-0.93-0.47-1.16-0.47c-12.63-0.02-25.26-0.05-37.9,0.03
		c-0.7,0-1.71,0.8-2.02,1.48c-0.79,1.71-1.22,3.58-1.88,5.35c-2.09,5.61-4.27,11.19-6.33,16.81c-1.39,3.79-2.57,7.66-3.98,11.45
		c-2.88,7.77-5.88,15.5-8.78,23.27c-1.98,5.3-3.88,10.64-5.81,15.95c-0.11-2.93,0.53-5.71,0.66-8.52
		c0.45-9.55,0.77-19.12,1.04-28.68c0.32-11.4,0.5-22.81,0.85-34.22c0.07-2.27-0.57-3.02-2.92-3c-10.45,0.12-20.91,0.13-31.36,0.01
		c-2.41-0.03-3.09,0.67-3.04,3.07c0.39,18.88,0.72,37.76,0.93,56.65c0.16,14.11,0.12,28.22,0.16,42.33
		c0.02,5.77,0.01,5.83,5.78,5.85c13.07,0.04,26.14,0,39.2-0.01c1.42,0,2.35-0.11,2.95-2.01c1.61-5.15,3.76-10.13,5.66-15.19
		c1.55-4.1,3.08-8.21,4.58-12.33c1.5-4.12,2.92-8.26,4.43-12.38c1.98-5.41,4.04-10.79,6.03-16.2c1.46-3.93,2.87-7.88,4.31-11.83
		c0.21,0.04,0.42,0.08,0.63,0.12c-0.42,4.73-0.94,9.46-1.25,14.2c-0.46,7.02-0.8,14.05-1.14,21.08c-0.52,10.6-0.96,21.2-1.57,31.8
		c-0.12,2.16,0.69,2.77,2.62,2.77c14.03-0.02,28.05,0.03,42.08-0.08c1-0.01,2.45-0.97,2.9-1.87c1.83-3.7,3.31-7.57,4.98-11.35
		c5.57-12.57,11.18-25.12,16.74-37.7c3.5-7.92,6.94-15.87,10.39-23.81c4.4-10.12,8.8-20.24,13.15-30.38
		c0.31-0.72,0.22-1.6,0.34-2.66c-12.26,0-24.18-0.03-36.09,0.08c-0.74,0.01-1.8,1.05-2.14,1.85c-1.52,3.64-2.82,7.37-4.21,11.06
		c-3.48,9.19-6.98,18.38-10.44,27.58c-4.07,10.82-8.11,21.65-12.16,32.47c-0.4-0.74-0.55-1.55-0.47-2.33
		c0.22-2.15,0.68-4.29,0.8-6.45c0.64-10.93,1.24-21.86,1.77-32.79c0.2-4.09,0.05-8.19,0.28-12.27
		C1032.45,769.8,1033.01,763.53,1033.48,757.37z M593.58,864.14c1.1,0.23,1.99,0.57,2.88,0.58c11.76,0.04,23.53,0.06,35.29-0.03
		c0.95-0.01,2.38-0.6,2.76-1.34c2.24-4.45,4.35-8.98,6.25-13.59c0.72-1.75,1.63-2.42,3.46-2.41c7.93,0.05,15.86,0.09,23.79-0.02
		c2.14-0.03,2.68,0.87,2.71,2.75c0.05,3.66,0.17,7.32,0.37,10.97c0.19,3.49,0.37,3.66,3.86,3.68c11.07,0.03,22.13,0,33.2,0.04
		c2.26,0.01,3.43-0.71,3.11-3.2c-0.82-6.27-1.64-12.53-2.29-18.82c-0.84-8.08-1.54-16.18-2.24-24.28
		c-0.54-6.23-0.98-12.46-1.48-18.7c-0.56-7.09-1.14-14.19-1.71-21.28c-0.03-0.43-0.08-0.87-0.13-1.3
		c-0.63-5.75-1.38-11.49-1.83-17.26c-0.18-2.25-0.68-3.14-3.19-3.12c-15.51,0.13-31.02,0.15-46.53,0.01
		c-2.53-0.02-3.68,0.95-4.65,3.01c-2.18,4.64-4.45,9.25-6.81,13.8c-3.85,7.41-7.86,14.74-11.69,22.16
		c-3.16,6.12-6.1,12.36-9.25,18.49c-2.98,5.82-6.12,11.56-9.16,17.36c-3.31,6.3-6.61,12.6-9.87,18.93
		C598.15,854.95,595.97,859.39,593.58,864.14z M1154.25,756.89c0-0.01,0-0.03,0-0.04c-7.93,0-15.85,0.05-23.78-0.04
		c-1.72-0.02-2.71,0.57-3.42,2.1c-1.85,3.97-3.72,7.94-5.74,11.83c-4.71,9.09-9.55,18.11-14.26,27.2
		c-4.01,7.74-7.87,15.55-11.86,23.3c-3.84,7.45-7.79,14.85-11.63,22.3c-3.08,5.96-6.01,12-9.13,17.94c-1.62,3.09-1.61,3.29,1.9,3.29
		c11.58,0,23.17,0.02,34.75-0.11c1.04-0.01,2.57-0.83,3.02-1.71c2.32-4.51,4.47-9.12,6.45-13.79c0.53-1.24,1-1.8,2.33-1.8
		c8.45,0.03,16.9,0.03,25.35-0.01c1.67-0.01,2.3,0.61,2.27,2.31c-0.08,4.18,0.07,8.36-0.04,12.54c-0.05,1.86,0.74,2.52,2.41,2.53
		c2.26,0.01,4.53,0,6.79,0c9.41,0.01,18.81,0.02,28.22,0.04c1.76,0,3.09-0.15,2.73-2.58c-0.72-4.87-1.32-9.75-1.78-14.65
		c-0.51-5.44-0.76-10.9-1.22-16.34c-1.01-11.93-2.07-23.86-3.12-35.79c-0.04-0.43-0.1-0.87-0.15-1.3
		c-0.63-5.06-1.36-10.1-1.86-15.17c-0.64-6.48-1.16-12.98-1.57-19.48c-0.13-2.07-0.96-2.63-2.9-2.61
		C1170.1,756.93,1162.17,756.89,1154.25,756.89z M739.57,828.61c-5.05,0-10.11,0.12-15.16-0.06c-2.24-0.08-3.36,0.97-3.54,2.83
		c-0.56,5.95-1.14,12.01,1.29,17.67c2.78,6.45,7.64,11.08,14.05,13.99c7.83,3.56,16.26,4.63,24.68,5.06
		c5.14,0.26,10.36-0.67,15.53-1.18c2.82-0.28,5.77-0.34,8.38-1.27c5.4-1.93,10.84-3.95,15.85-6.7c8.73-4.78,14.14-12.6,16.74-22.01
		c1.24-4.49,1.07-9.41,1.23-14.15c0.19-5.65-2.56-10.13-6.79-13.52c-2.77-2.22-5.84-4.3-9.12-5.61c-6.1-2.45-12.43-4.33-18.69-6.37
		c-3.73-1.21-7.53-2.2-11.24-3.45c-2.14-0.72-3.81-2.07-3.82-4.66c-0.01-2.95,1.06-5.29,3.63-6.92c3.92-2.48,8.2-2.08,12.38-1.36
		c3.75,0.64,6.24,5.12,5.27,8.69c-0.62,2.31-0.11,3.1,2.28,3.11c9.93,0.04,19.87,0,29.8,0.04c1.84,0.01,2.8-0.72,2.86-2.56
		c0.12-3.62,0.45-7.26,0.28-10.87c-0.26-5.51-2.56-10.29-6.23-14.37c-6.19-6.88-14.66-9.61-23.22-10.24
		c-10.68-0.78-21.52-1.46-32.19,1.95c-4.85,1.55-9.63,2.9-13.99,5.56c-8.24,5.03-14.17,11.86-16.63,21.36
		c-0.51,1.98-0.65,4.07-1.25,6.01c-2.68,8.56,0.77,17.68,8.01,22.61c7.18,4.89,15.46,6.68,23.56,9.12
		c5.13,1.55,10.17,3.49,15.06,5.69c1.37,0.62,3.05,3,2.81,4.21c-0.51,2.53-1.97,5-3.48,7.18c-2.16,3.09-5.93,2.61-9.05,2.95
		c-2.66,0.29-5.74-0.09-8.12-1.23c-3.29-1.59-3.93-5.06-3.42-8.54c0.35-2.39-0.6-3.05-2.85-3
		C749.5,828.69,744.54,828.61,739.57,828.61z M560.73,800.13c1.06-4.33,2.42-8.26,2.87-12.28c0.33-2.95,1.58-3.26,4-3.25
		c12.63,0.08,25.27,0.01,37.9,0.07c1.88,0.01,3.29-0.5,3.83-2.32c0.61-2.04,1.03-4.14,1.44-6.23c1.2-6.24,2.34-12.49,3.55-18.98
		c-0.75-0.1-1.5-0.29-2.24-0.29c-22.04,0-44.08,0.02-66.13,0.03c-4.01,0-8.02,0.06-12.02-0.05c-1.83-0.05-2.79,0.56-2.89,2.46
		c-0.08,1.38-0.2,2.78-0.51,4.12c-1.07,4.69-2.31,9.33-3.31,14.03c-0.74,3.46-1.06,7.01-1.81,10.47c-1.05,4.85-2.38,9.64-3.46,14.49
		c-0.73,3.29-1.15,6.65-1.86,9.95c-1.05,4.87-2.32,9.69-3.36,14.56c-0.7,3.3-1.03,6.68-1.77,9.97c-1.01,4.51-2.37,8.94-3.36,13.45
		c-0.99,4.53-1.7,9.11-2.59,13.93c0.82,0.15,1.73,0.47,2.64,0.47c11.06,0.04,22.13,0.01,33.19,0.08c1.86,0.01,2.76-0.87,3.1-2.48
		c1.36-6.51,2.67-13.02,3.98-19.54c0.92-4.56,1.73-9.15,2.8-13.68c0.16-0.67,1.42-1.43,2.24-1.53c1.89-0.23,3.82-0.07,5.74-0.07
		c9.58,0,19.17-0.01,28.75,0.01c1.7,0,3.19-0.35,3.64-2.2c0.49-2.01,0.77-4.07,1.17-6.11c0.98-4.99,1.84-10.01,2.99-14.96
		c0.92-3.92,1.03-3.96-3.01-3.96c-10.63,0-21.26,0-31.89-0.01C563.35,800.29,562.33,800.2,560.73,800.13z M858.52,784.79
		c0.05,0.81,0.19,1.33,0.09,1.8c-0.68,3.09-1.47,6.16-2.12,9.26c-0.67,3.22-1.15,6.48-1.85,9.7c-1.04,4.77-2.28,9.5-3.31,14.27
		c-0.73,3.39-1.12,6.85-1.86,10.23c-1.01,4.6-2.29,9.15-3.34,13.74c-1.36,5.96-2.57,11.96-3.92,17.92
		c-0.43,1.89-0.15,3.09,2.12,3.05c2.26-0.03,4.53,0,6.8,0c8.8,0,17.6,0.04,26.4-0.04c0.94-0.01,2.47-0.51,2.7-1.14
		c1-2.79,1.72-5.7,2.36-8.61c1.8-8.15,3.51-16.32,5.26-24.49c1.73-8.08,3.5-16.16,5.2-24.25c1.35-6.41,2.75-12.81,3.88-19.26
		c0.33-1.88,1.09-2.22,2.72-2.2c7.32,0.08,14.64,0.13,21.95,0.02c0.98-0.01,2.31-0.71,2.82-1.51c0.71-1.11,0.83-2.62,1.13-3.97
		c1.34-6.04,2.58-12.11,4.03-18.13c0.86-3.57,0.38-4.35-3.28-4.35c-16.29,0.02-32.59,0.03-48.88,0.03
		c-12.11,0-24.22,0.12-36.33-0.09c-2.75-0.05-3.69,1.15-4.16,3.35c-0.9,4.23-1.75,8.46-2.59,12.7c-0.62,3.12-1.22,6.24-1.8,9.37
		c-0.36,1.91,0.42,2.68,2.4,2.64c4.7-0.09,9.41-0.03,14.11-0.03C852.18,784.79,855.3,784.79,858.52,784.79z M612.94,801.86
		c0.83-2.06,1.48-3.68,2.33-5.78C611.85,796.86,611.33,798.38,612.94,801.86z"/>
	<path class="st0" d="M1198.85,745.38c2.06,0,3.43,0,4.8,0c19.6,0,39.2,0.01,58.8-0.04c2.14-0.01,2.89,0.78,3.03,2.88
		c0.23,3.44,0.76,6.85,1.21,10.27c0.06,0.45,0.4,0.86,0.99,2.04c1.73-3.1,3.19-5.63,4.57-8.22c1-1.89,1.72-3.94,2.89-5.71
		c0.47-0.71,1.81-1.2,2.76-1.2c16.55-0.05,33.1-0.01,49.65,0c5.75,0,11.5-0.02,17.25-0.01c0.59,0,1.17,0.08,2.39,0.17
		c-1.38,2.25-2.46,4.22-3.72,6.06c-6.23,9.08-12.54,18.1-18.75,27.2c-7.32,10.73-14.54,21.53-21.84,32.28
		c-4.46,6.55-9.04,13.02-13.47,19.59c-2.13,3.16-4.2,6.39-5.98,9.75c-1.02,1.93-1.6,4.15-2.03,6.31
		c-1.09,5.41-1.93,10.87-2.97,16.29c-0.78,4.05-1.64,8.08-2.64,12.08c-0.4,1.6-1.72,2.06-3.43,2.05
		c-12.89-0.07-25.79-0.04-38.68-0.04c-5.66,0-11.33,0.01-16.99,0c-2.8,0-3.37-0.91-2.56-3.49c0.72-2.28,1.27-4.62,1.76-6.96
		c0.98-4.64,1.8-9.3,2.8-13.93c1.14-5.27,2.64-10.47,3.5-15.77c0.31-1.95-0.71-4.14-1.23-6.19c-1.14-4.5-2.33-8.99-3.52-13.48
		c-1.09-4.13-2.23-8.24-3.3-12.37c-0.61-2.35-1.16-4.71-1.73-7.07c-1.87-7.76-3.7-15.54-5.62-23.29
		c-1.69-6.84-3.45-13.67-5.25-20.49C1200.79,751.35,1199.87,748.7,1198.85,745.38z M1213.8,757.06c0.96,4.01,1.77,7.68,2.72,11.32
		c1.39,5.32,2.98,10.59,4.32,15.92c2.04,8.1,3.88,16.25,5.91,24.35c1.96,7.85,4.1,15.66,6.04,23.52c0.41,1.64,0.62,3.47,0.35,5.11
		c-0.98,5.98-2.19,11.92-3.33,17.87c-0.39,2.02-0.64,4.09-1.27,6.04c-1.02,3.16-0.83,3.57,2.52,3.58
		c9.58,0.01,19.17,0.01,28.75,0.01c6.23,0,6.23,0,7.45-6.11c0.03-0.17,0.07-0.34,0.1-0.51c1.34-6.07,2.64-12.14,4.05-18.19
		c0.38-1.64,0.84-3.38,1.73-4.77c4.09-6.37,8.32-12.66,12.57-18.93c5.05-7.45,10.19-14.83,15.26-22.27
		c6.05-8.88,12.08-17.77,18.1-26.67c2.19-3.24,4.32-6.52,6.7-10.12c-1.22-0.19-1.88-0.37-2.55-0.38
		c-12.98-0.02-25.96-0.05-38.95,0.06c-0.95,0.01-2.3,0.87-2.77,1.71c-2.01,3.59-3.74,7.35-5.6,11.02
		c-5.05,9.94-10.11,19.86-15.53,30.5c-0.09-1.67-0.1-2.59-0.2-3.49c-0.46-4.13-0.87-8.28-1.44-12.4c-0.57-4.18-1.38-8.32-1.96-12.5
		c-0.59-4.28-1.09-8.58-1.5-12.88c-0.17-1.76-1.13-2.11-2.62-2.11c-12.02,0.04-24.04,0.06-36.07,0.09
		C1215.92,756.85,1215.24,756.95,1213.8,757.06z"/>
	<path class="st0" d="M854.96,926.75c-3.42,0-6.59,0-10.18,0c0-1.59,0.02-3.13,0-4.66c-0.03-2.07-0.95-3.22-3.17-3.19
		c-3.75,0.05-7.49,0.05-11.24,0.01c-2.15-0.02-2.92,1.12-2.92,3.11c0.01,9.32,0,18.64-0.01,27.96c0,2.22,1.16,3.41,3.33,3.45
		c3.66,0.07,7.32-0.08,10.97,0.06c2.77,0.1,3.14-1.93,3.78-3.79c0.14-0.4,0.15-0.86,0.18-1.29c0.4-5.73,0.36-5.78-5.35-5.89
		c-4.15-0.08-5.9-2.67-4.35-6.56c0.18-0.44,0.85-0.96,1.3-0.97c5.81-0.07,11.62-0.04,17.62-0.04c0,6.67,0.17,13-0.07,19.33
		c-0.12,3.06-4.1,6.62-7.27,6.68c-7.57,0.15-15.15,0.17-22.73-0.01c-3.58-0.08-7.2-3.98-7.23-7.6c-0.08-11.5-0.08-23,0-34.5
		c0.02-3.37,3.84-7.71,7.42-7.74c5.64-0.05,11.28-0.7,16.91-0.52c3.07,0.1,6.55,0.73,9.02,2.37c1.97,1.3,3.1,4.37,3.84,6.87
		C855.44,921.91,854.96,924.3,854.96,926.75z"/>
	<path class="st0" d="M768.72,935.96c0-5.48-0.07-10.96,0.02-16.44c0.08-4.75,3.05-8.05,7.72-8.34c5.97-0.37,11.95-0.61,17.93-0.61
		c2.38,0,4.97,0.31,7.1,1.27c3.3,1.49,4.93,4.65,4.98,8.17c0.14,10.61,0.11,21.23,0.01,31.84c-0.05,4.78-3.53,9.6-9.2,9.35
		c-6.69-0.3-13.4-0.02-20.1-0.1c-5.06-0.06-8.35-3.36-8.43-8.43c-0.08-5.57-0.02-11.14-0.02-16.7
		C768.73,935.96,768.73,935.96,768.72,935.96z M796.7,936.12c0-4.44,0.03-8.88-0.01-13.33c-0.03-2.65-1.19-3.8-3.83-3.84
		c-3.57-0.05-7.14-0.05-10.71-0.01c-2.86,0.03-3.97,1.08-3.99,3.92c-0.05,8.8-0.04,17.59-0.01,26.39c0.01,2.69,1.04,3.9,3.72,4.02
		c3.65,0.16,7.31,0.17,10.96,0.04c2.79-0.11,3.85-1.36,3.87-4.13C796.72,944.83,796.7,940.47,796.7,936.12z"/>
	<path class="st0" d="M915.18,961.12c-3.05,0-6.1-0.09-9.15,0.02c-6.56,0.23-8.32-3.71-8.75-8.37c-0.75-8.1-0.86-7.26,6.5-7.27
		c2.99-0.01,3.44,0.48,3.47,3.5c0.04,4.36,1.22,5.57,5.53,5.62c1.83,0.02,3.66,0.02,5.49-0.01c3.67-0.05,5.13-0.88,5.59-4.38
		c0.36-2.67-0.2-5.47-0.46-8.2c-0.17-1.74-1.39-2.19-2.99-2.18c-3.92,0.04-7.85-0.15-11.76,0.06c-2.68,0.14-4.82-1-7.06-2.09
		c-2.08-1.02-3.04-2.9-3.11-4.96c-0.18-5.12-0.17-10.26-0.01-15.39c0.09-2.94,2.82-5.95,5.82-6.04c7.21-0.21,14.45-0.3,21.66,0.08
		c3.42,0.18,5.8,3.48,5.96,7.33c0.36,8.44,1.21,6.96-6.7,7.21c-2.29,0.07-3.24-0.6-3.11-3.11c0.19-3.82-1.24-5.26-5.09-5.13
		c-2.61,0.09-5.2,0.73-7.79,1.15c-0.24,0.04-0.51,0.17-0.69,0.34c-1.87,1.81-1.43,10.79,0.7,12.23c0.8,0.54,1.94,0.75,2.93,0.78
		c3.92,0.11,7.84,0.02,11.76,0.11c5.89,0.15,9.35,3.48,9.53,9.3c0.12,4.09,0.04,8.19-0.07,12.28c-0.1,3.46-3.24,6.82-6.7,6.99
		c-3.82,0.19-7.66,0.04-11.49,0.04C915.18,961.05,915.18,961.09,915.18,961.12z"/>
	<path class="st0" d="M1014.48,936.13c0-5.05-0.04-10.1,0.01-15.14c0.06-6.41,2.7-9.39,9.01-9.85c5.01-0.37,10.05-0.65,15.07-0.56
		c2.71,0.05,5.66,0.45,8.04,1.62c3.26,1.61,4.33,5.22,4.41,8.57c0.2,8.94,1.5,7.13-6.91,7.46c-2.58,0.1-3.47-0.88-3.2-3.33
		c0.1-0.94,0.09-1.94-0.1-2.86c-0.37-1.84-1.3-3.14-3.47-3.1c-2.87,0.05-5.74,0-8.62,0c-3.3,0.01-4.71,1.1-4.77,4.37
		c-0.14,8.53-0.12,17.06-0.02,25.59c0.03,2.85,1.8,4.37,4.67,4.43c2.7,0.05,5.4,0.04,8.09-0.01c3.04-0.05,4-1.02,4.2-4.07
		c0.34-5.18,0.34-5.2,5.49-5.16c5.72,0.05,4.64-0.22,4.75,4.76c0.09,4.4-0.69,8.52-4.7,11.11c-1.15,0.74-2.75,1.07-4.15,1.09
		c-6.44,0.11-12.88,0.12-19.32,0.03c-4.75-0.07-8.06-2.97-8.3-7.73c-0.29-5.73-0.07-11.48-0.07-17.22
		C1014.56,936.13,1014.52,936.13,1014.48,936.13z"/>
	<path class="st0" d="M1056.03,961.11c0.95-3.39,1.67-6.1,2.47-8.79c1.03-3.45,2.13-6.87,3.18-10.31
		c1.54-5.06,3.09-10.12,4.59-15.19c1.15-3.88,2.34-7.75,3.32-11.67c0.78-3.14,1.64-3.98,4.87-3.99c1.83,0,3.67,0.15,5.48-0.04
		c2.11-0.23,3.01,0.97,3.51,2.63c1.06,3.45,1.95,6.94,3.01,10.39c1.13,3.67,2.47,7.28,3.55,10.96c1.09,3.71,1.93,7.49,2.99,11.2
		c1.1,3.87,2.28,7.71,3.5,11.55c0.88,2.78,0.62,3.22-2.27,3.26c-0.96,0.01-1.91,0-2.87,0c-3.58,0-3.95-0.4-4.7-4.05
		c-0.32-1.59-0.82-3.18-1.55-4.61c-0.29-0.56-1.42-0.96-2.17-0.98c-4.09-0.1-8.18-0.03-12.27-0.07c-3.35-0.03-3.17,2.96-3.67,4.81
		c-1.33,4.88-1.12,4.93-6.09,4.91C1059.54,961.1,1058.17,961.11,1056.03,961.11z M1077.43,921.76c-0.39-0.06-0.79-0.12-1.18-0.18
		c-0.46,1.36-1,2.71-1.37,4.1c-1.31,4.95-2.49,9.92-3.85,14.85c-0.62,2.24,0.14,3.51,2.53,3.56c1.91,0.04,3.83,0.01,5.74-0.01
		c3.19-0.03,3.81-1.02,2.85-4.03c-1.14-3.57-2.16-7.18-3.11-10.8C1078.4,926.79,1077.96,924.26,1077.43,921.76z"/>
	<path class="st0" d="M881.3,953.37c1.98,0,3.79,0.05,5.59-0.01c1.48-0.05,2.25,0.4,2.23,2.06c-0.11,6.86,0.71,5.59-5.36,5.67
		c-6,0.08-12.01-0.04-18.02,0.05c-2.03,0.03-2.92-0.68-2.68-2.73c0.07-0.6,0.08-1.23,0-1.82c-0.36-2.64,1-3.4,3.37-3.24
		c1.45,0.1,2.9,0.02,4.47,0.02c0-11.57,0-22.77,0-34.43c-1.74,0-3.44-0.07-5.13,0.02c-1.91,0.11-2.63-0.74-2.71-2.6
		c-0.24-5.2-0.28-5.2,4.89-5.2c6.27,0,12.53,0.06,18.8-0.02c1.81-0.02,2.39,0.57,2.41,2.39c0.04,5.37,0.12,5.36-5.13,5.41
		c-0.85,0.01-1.7,0.09-2.71,0.14C881.3,930.49,881.3,941.75,881.3,953.37z"/>
	<path class="st0" d="M988.33,935.99c0-4.79-0.06-9.58,0.03-14.37c0.04-2.06-0.77-2.91-2.78-2.69c-0.34,0.04-0.7,0.01-1.04,0.01
		c-4.67,0-6.11-1.9-4.8-6.53c0.15-0.52,1.08-1.17,1.65-1.17c7.75-0.08,15.51-0.06,23.26-0.05c1.39,0,2.07,0.74,1.92,2.17
		c-0.04,0.34-0.04,0.7,0,1.04c0.42,3.79-1.3,4.7-4.44,4.58c-4.39-0.18-4.39-0.03-4.39,4.37c0,8.97,0.07,17.95-0.04,26.92
		c-0.03,2.42,0.8,3.4,3.17,3.1c0.34-0.04,0.7-0.01,1.04-0.01c4.43,0,6.05,2.24,4.55,6.49c-0.2,0.57-1.3,1.17-1.99,1.18
		c-7.66,0.08-15.33,0.09-23-0.03c-0.6-0.01-1.65-1.16-1.71-1.86c-0.51-5.8-0.46-5.92,5.36-5.73c2.57,0.08,3.36-0.81,3.27-3.31
		C988.21,945.4,988.33,940.7,988.33,935.99z"/>
	<path class="st0" d="M962.27,940.59c0,6-0.07,12.01,0.04,18.01c0.04,1.98-0.66,2.51-2.55,2.55c-7.44,0.15-7.43,0.21-7.42-7.28
		c0.01-10,0.02-20.01,0.01-30.01c-0.01-4.48-0.11-4.56-4.47-4.56c-2.35,0-4.7-0.06-7.05,0c-1.46,0.03-2-0.58-1.98-2.02
		c0.09-7.44-0.87-6.02,5.71-6.08c9.48-0.09,18.97,0.04,28.45-0.06c2.31-0.02,3.29,0.53,3.21,3.05c-0.18,5.63,0.34,5.09-5.07,5.11
		c-2.09,0.01-4.18-0.07-6.26,0.05c-1.79,0.1-2.75,0.89-2.7,2.98c0.13,6.09,0.05,12.18,0.05,18.27
		C962.25,940.59,962.26,940.59,962.27,940.59z"/>
	<path class="st0" d="M731.3,935.95c0-7.31,0.05-14.62-0.03-21.94c-0.02-2.11,0.65-2.9,2.85-2.9c6.96,0.02,6.96-0.06,6.97,6.82
		c0.01,10.45,0,20.89,0.04,31.34c0.01,3.04,0.65,3.66,3.7,3.66c4.96,0,9.92-0.13,14.87-0.04c0.59,0.01,1.21,1.04,1.71,1.68
		c0.14,0.18-0.12,0.66-0.15,1c-0.46,5.53-0.45,5.53-6.11,5.53c-6.96,0-13.93-0.07-20.89,0.04c-2.26,0.03-3.03-0.72-2.99-3
		c0.12-7.4,0.04-14.8,0.04-22.19C731.31,935.95,731.31,935.95,731.3,935.95z"/>
	<path class="st1" d="M888.03,896.31c-2.28,3.77-4.89,6.82-8.4,8.98c-2.05,1.27-6.29,0.63-7.69-0.76
		C875.77,897.29,879.4,895.34,888.03,896.31z"/>
	<path class="st2" d="M1033.48,757.37c-0.47,6.16-1.02,12.43-1.39,18.71c-0.24,4.08-0.09,8.19-0.28,12.27
		c-0.53,10.93-1.13,21.86-1.77,32.79c-0.13,2.16-0.58,4.29-0.8,6.45c-0.08,0.78,0.07,1.59,0.47,2.33
		c4.05-10.83,8.09-21.66,12.16-32.47c3.46-9.2,6.97-18.38,10.44-27.58c1.4-3.69,2.69-7.42,4.21-11.06c0.33-0.8,1.4-1.84,2.14-1.85
		c11.92-0.12,23.83-0.08,36.09-0.08c-0.13,1.06-0.04,1.94-0.34,2.66c-4.35,10.14-8.75,20.26-13.15,30.38
		c-3.45,7.94-6.89,15.89-10.39,23.81c-5.56,12.58-11.17,25.13-16.74,37.7c-1.67,3.78-3.15,7.65-4.98,11.35
		c-0.45,0.91-1.9,1.87-2.9,1.87c-14.02,0.12-28.05,0.07-42.08,0.08c-1.92,0-2.74-0.6-2.62-2.77c0.61-10.59,1.04-21.2,1.57-31.8
		c0.35-7.03,0.68-14.06,1.14-21.08c0.31-4.74,0.83-9.47,1.25-14.2c-0.21-0.04-0.42-0.08-0.63-0.12c-1.43,3.94-2.85,7.89-4.31,11.83
		c-2,5.4-4.05,10.79-6.03,16.2c-1.51,4.11-2.93,8.26-4.43,12.38c-1.5,4.12-3.03,8.23-4.58,12.33c-1.91,5.06-4.06,10.04-5.66,15.19
		c-0.59,1.9-1.53,2.01-2.95,2.01c-13.07,0.01-26.14,0.05-39.2,0.01c-5.78-0.02-5.77-0.08-5.78-5.85c-0.04-14.11,0-28.22-0.16-42.33
		c-0.21-18.88-0.54-37.77-0.93-56.65c-0.05-2.4,0.63-3.1,3.04-3.07c10.45,0.12,20.91,0.11,31.36-0.01c2.34-0.03,2.99,0.73,2.92,3
		c-0.35,11.4-0.53,22.81-0.85,34.22c-0.27,9.56-0.59,19.12-1.04,28.68c-0.13,2.81-0.77,5.59-0.66,8.52
		c1.93-5.32,3.83-10.65,5.81-15.95c2.9-7.77,5.9-15.49,8.78-23.27c1.4-3.79,2.58-7.66,3.98-11.45c2.06-5.62,4.24-11.2,6.33-16.81
		c0.66-1.77,1.09-3.64,1.88-5.35c0.32-0.68,1.32-1.47,2.02-1.48c12.63-0.08,25.26-0.05,37.9-0.03
		C1032.55,756.9,1032.78,757.08,1033.48,757.37z"/>
	<path class="st2" d="M593.58,864.14c2.39-4.75,4.57-9.19,6.84-13.59c3.26-6.33,6.56-12.63,9.87-18.93
		c3.04-5.79,6.17-11.54,9.16-17.36c3.14-6.13,6.09-12.37,9.25-18.49c3.83-7.42,7.84-14.75,11.69-22.16
		c2.36-4.55,4.62-9.16,6.81-13.8c0.97-2.06,2.12-3.04,4.65-3.01c15.51,0.15,31.02,0.13,46.53-0.01c2.51-0.02,3.01,0.88,3.19,3.12
		c0.45,5.76,1.2,11.51,1.83,17.26c0.05,0.43,0.1,0.87,0.13,1.3c0.57,7.09,1.14,14.19,1.71,21.28c0.49,6.23,0.94,12.47,1.48,18.7
		c0.7,8.1,1.41,16.2,2.24,24.28c0.65,6.28,1.47,12.55,2.29,18.82c0.33,2.49-0.85,3.21-3.11,3.2c-11.07-0.04-22.13,0-33.2-0.04
		c-3.49-0.01-3.67-0.19-3.86-3.68c-0.2-3.65-0.31-7.31-0.37-10.97c-0.03-1.88-0.57-2.78-2.71-2.75c-7.93,0.12-15.86,0.08-23.79,0.02
		c-1.82-0.01-2.73,0.66-3.46,2.41c-1.9,4.61-4.01,9.14-6.25,13.59c-0.37,0.74-1.81,1.33-2.76,1.34
		c-11.76,0.09-23.52,0.07-35.29,0.03C595.57,864.72,594.68,864.37,593.58,864.14z M669.34,822.18c0-12.02,0-23.85,0-35.75
		c-5.2,11.96-10.33,23.76-15.55,35.75C659.17,822.18,664.25,822.18,669.34,822.18z"/>
	<path class="st2" d="M1154.25,756.89c7.93,0,15.85,0.04,23.78-0.03c1.94-0.02,2.77,0.53,2.9,2.61c0.41,6.5,0.93,13,1.57,19.48
		c0.5,5.07,1.23,10.12,1.86,15.17c0.05,0.43,0.11,0.86,0.15,1.3c1.05,11.93,2.11,23.86,3.12,35.79c0.46,5.44,0.71,10.9,1.22,16.34
		c0.46,4.9,1.06,9.79,1.78,14.65c0.36,2.44-0.97,2.59-2.73,2.58c-9.41-0.02-18.81-0.03-28.22-0.04c-2.26,0-4.53,0.01-6.79,0
		c-1.67-0.01-2.46-0.67-2.41-2.53c0.12-4.18-0.04-8.36,0.04-12.54c0.03-1.7-0.61-2.32-2.27-2.31c-8.45,0.04-16.9,0.04-25.35,0.01
		c-1.33,0-1.81,0.56-2.33,1.8c-1.99,4.67-4.13,9.28-6.45,13.79c-0.45,0.88-1.98,1.7-3.02,1.71c-11.58,0.13-23.17,0.11-34.75,0.11
		c-3.51,0-3.53-0.2-1.9-3.29c3.12-5.94,6.05-11.98,9.13-17.94c3.85-7.45,7.8-14.85,11.63-22.3c3.99-7.75,7.85-15.56,11.86-23.3
		c4.71-9.09,9.55-18.11,14.26-27.2c2.02-3.89,3.89-7.86,5.74-11.83c0.71-1.53,1.71-2.12,3.42-2.1c7.93,0.08,15.85,0.04,23.78,0.04
		C1154.25,756.86,1154.25,756.87,1154.25,756.89z M1148.91,822.19c0-11.92,0-23.74,0-36.13c-5.37,12.38-10.45,24.1-15.67,36.13
		C1138.75,822.19,1143.83,822.19,1148.91,822.19z"/>
	<path class="st2" d="M739.57,828.61c4.97,0,9.93,0.08,14.9-0.04c2.25-0.05,3.21,0.62,2.85,3c-0.52,3.47,0.13,6.95,3.42,8.54
		c2.38,1.15,5.46,1.52,8.12,1.23c3.12-0.34,6.89,0.15,9.05-2.95c1.52-2.18,2.97-4.64,3.48-7.18c0.24-1.21-1.44-3.59-2.81-4.21
		c-4.88-2.2-9.93-4.14-15.06-5.69c-8.1-2.44-16.38-4.23-23.56-9.12c-7.25-4.93-10.69-14.05-8.01-22.61
		c0.61-1.94,0.74-4.03,1.25-6.01c2.46-9.5,8.39-16.33,16.63-21.36c4.36-2.66,9.14-4.02,13.99-5.56c10.67-3.4,21.51-2.73,32.19-1.95
		c8.56,0.63,17.03,3.36,23.22,10.24c3.68,4.08,5.97,8.86,6.23,14.37c0.17,3.61-0.16,7.25-0.28,10.87c-0.06,1.84-1.02,2.56-2.86,2.56
		c-9.93-0.05-19.87,0-29.8-0.04c-2.39-0.01-2.9-0.8-2.28-3.11c0.96-3.58-1.53-8.06-5.27-8.69c-4.18-0.71-8.46-1.12-12.38,1.36
		c-2.57,1.63-3.64,3.97-3.63,6.92c0.01,2.59,1.68,3.94,3.82,4.66c3.71,1.25,7.51,2.24,11.24,3.45c6.26,2.04,12.59,3.92,18.69,6.37
		c3.27,1.31,6.35,3.39,9.12,5.61c4.23,3.4,6.98,7.87,6.79,13.52c-0.16,4.74,0.01,9.66-1.23,14.15c-2.61,9.41-8.01,17.23-16.74,22.01
		c-5.01,2.75-10.45,4.77-15.85,6.7c-2.61,0.93-5.56,1-8.38,1.27c-5.17,0.51-10.38,1.44-15.53,1.18c-8.42-0.43-16.85-1.5-24.68-5.06
		c-6.4-2.91-11.27-7.54-14.05-13.99c-2.44-5.65-1.86-11.72-1.29-17.67c0.18-1.86,1.3-2.91,3.54-2.83
		C729.46,828.73,734.52,828.61,739.57,828.61z"/>
	<path class="st2" d="M560.73,800.13c1.6,0.07,2.62,0.15,3.63,0.16c10.63,0.01,21.26,0.01,31.89,0.01c4.04,0,3.92,0.03,3.01,3.96
		c-1.16,4.95-2.02,9.97-2.99,14.96c-0.4,2.04-0.68,4.1-1.17,6.11c-0.45,1.85-1.94,2.21-3.64,2.2c-9.58-0.02-19.17-0.01-28.75-0.01
		c-1.92,0-3.85-0.16-5.74,0.07c-0.82,0.1-2.08,0.86-2.24,1.53c-1.07,4.53-1.88,9.12-2.8,13.68c-1.31,6.52-2.63,13.03-3.98,19.54
		c-0.34,1.61-1.24,2.5-3.1,2.48c-11.06-0.07-22.13-0.04-33.19-0.08c-0.91,0-1.82-0.32-2.64-0.47c0.88-4.82,1.6-9.4,2.59-13.93
		c0.99-4.51,2.35-8.94,3.36-13.45c0.74-3.29,1.07-6.67,1.77-9.97c1.04-4.87,2.3-9.69,3.36-14.56c0.71-3.3,1.13-6.66,1.86-9.95
		c1.08-4.85,2.41-9.64,3.46-14.49c0.75-3.46,1.07-7.01,1.81-10.47c1-4.7,2.25-9.35,3.31-14.03c0.31-1.34,0.43-2.74,0.51-4.12
		c0.11-1.9,1.06-2.5,2.89-2.46c4.01,0.1,8.01,0.05,12.02,0.05c22.04-0.01,44.08-0.03,66.13-0.03c0.74,0,1.49,0.19,2.24,0.29
		c-1.21,6.49-2.36,12.74-3.55,18.98c-0.4,2.09-0.83,4.19-1.44,6.23c-0.54,1.82-1.95,2.33-3.83,2.32
		c-12.63-0.06-25.27,0.01-37.9-0.07c-2.42-0.02-3.67,0.3-4,3.25C563.15,791.88,561.79,795.8,560.73,800.13z"/>
	<path class="st2" d="M858.52,784.79c-3.22,0-6.34,0-9.46,0c-4.71,0-9.41-0.06-14.11,0.03c-1.98,0.04-2.76-0.73-2.4-2.64
		c0.58-3.13,1.18-6.25,1.8-9.37c0.84-4.24,1.69-8.47,2.59-12.7c0.47-2.19,1.41-3.39,4.16-3.35c12.11,0.2,24.22,0.09,36.33,0.09
		c16.29-0.01,32.59-0.01,48.88-0.03c3.66,0,4.14,0.78,3.28,4.35c-1.45,6.02-2.68,12.09-4.03,18.13c-0.3,1.35-0.42,2.85-1.13,3.97
		c-0.51,0.8-1.84,1.5-2.82,1.51c-7.32,0.1-14.64,0.05-21.95-0.02c-1.63-0.02-2.39,0.32-2.72,2.2c-1.13,6.45-2.53,12.85-3.88,19.26
		c-1.71,8.09-3.47,16.17-5.2,24.25c-1.75,8.16-3.46,16.33-5.26,24.49c-0.64,2.91-1.36,5.81-2.36,8.61c-0.23,0.64-1.76,1.13-2.7,1.14
		c-8.8,0.08-17.6,0.04-26.4,0.04c-2.27,0-4.53-0.03-6.8,0c-2.27,0.03-2.54-1.16-2.12-3.05c1.34-5.97,2.56-11.96,3.92-17.92
		c1.05-4.6,2.32-9.14,3.34-13.74c0.75-3.38,1.14-6.84,1.86-10.23c1.02-4.77,2.26-9.5,3.31-14.27c0.7-3.21,1.18-6.48,1.85-9.7
		c0.65-3.1,1.43-6.17,2.12-9.26C858.71,786.13,858.57,785.6,858.52,784.79z"/>
	<path class="st2" d="M612.94,801.86c-1.61-3.49-1.09-5.01,2.33-5.78C614.42,798.18,613.77,799.8,612.94,801.86z"/>
	<path class="st2" d="M1213.8,757.06c1.44-0.11,2.12-0.21,2.8-0.21c12.02-0.03,24.04-0.05,36.07-0.09c1.49-0.01,2.45,0.35,2.62,2.11
		c0.42,4.3,0.91,8.6,1.5,12.88c0.58,4.18,1.38,8.32,1.96,12.5c0.57,4.12,0.98,8.26,1.44,12.4c0.1,0.91,0.11,1.83,0.2,3.49
		c5.42-10.64,10.49-20.57,15.53-30.5c1.87-3.68,3.6-7.43,5.6-11.02c0.47-0.85,1.82-1.71,2.77-1.71c12.98-0.11,25.96-0.08,38.95-0.06
		c0.66,0,1.33,0.19,2.55,0.38c-2.38,3.6-4.51,6.88-6.7,10.12c-6.02,8.9-12.05,17.79-18.1,26.67c-5.07,7.43-10.21,14.82-15.26,22.27
		c-4.25,6.27-8.47,12.56-12.57,18.93c-0.89,1.39-1.35,3.13-1.73,4.77c-1.41,6.05-2.71,12.13-4.05,18.19
		c-0.04,0.17-0.07,0.34-0.1,0.51c-1.22,6.11-1.22,6.11-7.45,6.11c-9.58,0-19.17,0-28.75-0.01c-3.35,0-3.54-0.42-2.52-3.58
		c0.63-1.95,0.89-4.01,1.27-6.04c1.14-5.95,2.35-11.89,3.33-17.87c0.27-1.65,0.05-3.47-0.35-5.11c-1.94-7.86-4.08-15.67-6.04-23.52
		c-2.03-8.1-3.87-16.25-5.91-24.35c-1.34-5.33-2.92-10.6-4.32-15.92C1215.57,764.75,1214.76,761.07,1213.8,757.06z"/>
	<path class="st1" d="M669.34,822.18c-5.09,0-10.16,0-15.55,0c5.21-11.99,10.35-23.79,15.55-35.75
		C669.34,798.34,669.34,810.17,669.34,822.18z"/>
	<path class="st1" d="M1148.91,822.19c-5.08,0-10.16,0-15.67,0c5.22-12.03,10.3-23.76,15.67-36.13
		C1148.91,798.46,1148.91,810.27,1148.91,822.19z"/>
</g>
<path class="st0" d="M975.5,423.5c-42.79-18.86-168.03-70.69-202-84.55c-9.46-4.45-10-2.45-10,5.55c-1.82,62.47,1,178-1,236
	c0,6,0,15,6,17.7c35.87,15.41,175.65,73.96,219,91.3c5.5,1.5,4-1,4.5-8.5c-0.37,0-0.37-217,0-217C992,429,995,432,975.5,423.5z
	 M961.17,627.5c0,0,0.33,15-18.17,5.5c0,0-106.28-44.27-141.5-59.5c-1.32-0.57-4-2-4.68-9.68c0.68-52.32-0.61-162.02-0.61-162.02
	c0.3-12.3,0.19-16.3,9.3-13.41l142,60.11c13,6,13.43,5.21,13.57,26.57C961.45,517.14,961.09,620.89,961.17,627.5z"/>
<path class="st0" d="M1215,324c-37-15-133-53-133-53s-54.75-21.94-75-29c-8.5-3.5-10.5-4.5-15.5-3.5C950.5,256.5,841,298,773,324
	c-4,1-4,3-2,5c53,22,166,69,217,92c6,3,12.13,0.92,14.5-0.5C1033,408,1092,383,1092,383s81.2-32.85,122.5-51.5
	C1220.61,328.74,1220,326,1215,324z M1042.96,371.46l-38.24,18.96c-5.09,1.86-7.9,2.24-13.89-0.15l-132.18-55.52
	c-5.99-2.39-8.03-5.81-2.93-7.68l39.63-17.21c5.09-1.86,12.43,0.3,18.43,2.69l124.99,51.26
	C1044.11,366.11,1049.24,368.16,1042.96,371.46z M1134.5,333.4l-36.57,16.66c-4.89,1.61-7.59,1.9-13.43-0.44l-129-54.01
	c-5.85-2.33-7.89-5.53-3-7.14l37.95-15.02c4.89-1.61,12.03,0.54,17.87,2.87l121.96,49.93C1135.5,328.5,1140.5,330.5,1134.5,333.4z"
	/>
<path class="st0" d="M1227,342c-1-7-9.5-5.5-9.5-5.5l-124,54c0,0-61.5,26-87.5,37c-2.93,1.18-7,4-8,11.5c0,59.5,0,176,0,238
	c0,6-1.3,15.22,5.5,13c60-26.5,162.5-72,216.5-93c6-2.5,6.98-2.02,6.98-14.02C1227,529,1227.02,384.54,1227,342z M1191,561
	c-0.33,2.55,0,7-5,9c-32,14-96,42-147,63c-6,1-8,0-8-8c0-40,0-128,0-167c0-5,3-5,12-9c-0.02-0.04,33.49-14.31,47.19-19.81
	c5.81-1.19,4.81,3.8,4.81,3.81v18c0,0,0,9,0,16c1.33,0.22,3-3,3-3l1-3c0.99,0.4,2.99-3.6,2-4l2-3c0,0,1.94-1,3-1s3,1,3,1
	s3.3-1.96,4-3c0.97-1.44,1.36-5.18,2.5-6.5c0.42-0.48,1.53-0.86,2.5-0.5c1.57,0.58,3.68,1.74,5,2c1.47,0.29,3.33-1.71,4.5-1.5
	c1.75,0.31,2.74,4.23,4.5,4.5c1.98,0.31,2-2,2-2s0-23,0.5-32c0-0.02-0.31-5.23,2.5-6.4c12.73-5.27,49.97-19.68,50-19.6
	c5-2,3.74,6.55,4,9C1192,440,1190,521,1191,561z"/>
<path class="st1" d="M1075,378c6.72,5.04,20,15,20,31c4,7,43-4,43-4s-4-29-21-44c-5.76-6.33-18-1-18-1l-5,7l-29.5,4.5
	C1064.5,371.5,1072.03,375.77,1075,378z"/>
<ellipse transform="matrix(0.689 -0.7248 0.7248 0.689 -24.5298 952.6857)" class="st0" cx="1097.78" cy="504.92" rx="21.27" ry="14.63"/>
<ellipse transform="matrix(0.689 -0.7248 0.7248 0.689 9.4705 984.7895)" class="st0" cx="1152.18" cy="481.36" rx="21.27" ry="14.46"/>
<path class="st0" d="M1167.55,505.12c-3.18,21.79-21.07,45.07-43.08,54.64c-22.01,9.57-40.7,2.19-44.93-16.38l-11.95,5.19
	c4.26,25.16,28.48,35.5,57.18,23.02c28.7-12.48,51.86-43.41,54.73-71.67L1167.55,505.12z"/>
<path class="st0" d="M833.5,270.5l-203.01-82.04c9.01-3.96,31.76-14.21,37.76-16.71c0-0.01,203.25,82.74,203.25,82.75
	C867.5,256.5,833.5,270.5,833.5,270.5z"/>
<path class="st0" d="M714.49,153.46c0,0,28.01-10.96,40.51-16.46l201,83c0,0-30.3,11.45-37.75,14.5
	C914.75,235,714.49,153.46,714.49,153.46z"/>
<path class="st0" d="M525.5,282c51,21,155,57.5,203,79.5c0,7,0,25,0,32c-27-11-124-49-189-77C537.5,311.5,527.5,289.5,525.5,282z"/>
<path class="st0" d="M574.1,367.5c37.15,15.64,143.4,57,155.2,62c0.19,7-0.81,23-0.81,31c-10-4-141.84-56.52-144.15-59
	C579.5,387.5,576.5,377.5,574.1,367.5z"/>
<path class="st0" d="M635.5,460c19.5,7.5,72.5,28,93,36.5c0,3,0,18-1,31c-7-2-57.01-23.48-76-32C647.5,487.5,639.5,468.5,635.5,460z
	"/>
<path class="st0" d="M533.5,225.5c0,0,31-13,39-15c50,22,156.5,63.5,200,82c-4,2-27,13-37,17C694,292,533.5,225.5,533.5,225.5z"/>
</svg>
